<?xml version="1.0" standalone="no"?>
<!DOCTYPE svg PUBLIC "-//W3C//DTD SVG 20010904//EN"
 "http://www.w3.org/TR/2001/REC-SVG-20010904/DTD/svg10.dtd">
<svg version="1.0" xmlns="http://www.w3.org/2000/svg"
 width="160.000000pt" height="160.000000pt" viewBox="0 0 160.000000 160.000000"
 preserveAspectRatio="xMidYMid meet">
<metadata>
Created by potrace 1.16, written by Peter Selinger 2001-2019
</metadata>
<g transform="translate(0.000000,160.000000) scale(0.100000,-0.100000)"
fill="#000000" stroke="none">
<path d="M488 1289 c-21 -12 -23 -42 -4 -58 9 -8 66 -11 181 -9 147 3 169 5
179 21 8 12 8 22 0 35 -10 15 -31 17 -175 19 -99 2 -171 -1 -181 -8z"/>
<path d="M341 1166 c-7 -8 -10 -24 -6 -36 6 -20 12 -20 223 -18 l217 3 0 30 0
30 -211 3 c-176 2 -213 0 -223 -12z"/>
<path d="M222 1058 c-15 -15 -15 -41 0 -56 13 -13 445 -17 464 -4 19 13 23 41
8 57 -13 13 -52 15 -238 15 -159 0 -225 -3 -234 -12z"/>
<path d="M214 936 c-3 -8 -4 -23 -2 -33 3 -17 21 -18 238 -21 209 -2 236 -1
247 14 9 12 9 22 2 35 -9 18 -26 19 -245 19 -195 0 -236 -2 -240 -14z"/>
<path d="M754 936 c-3 -8 -4 -23 -2 -33 3 -16 19 -18 185 -21 176 -2 182 -2
188 18 14 45 -5 50 -192 50 -142 0 -175 -3 -179 -14z"/>
<path d="M342 828 c-16 -16 -15 -43 2 -57 9 -8 75 -11 216 -9 181 3 204 5 214
21 8 12 8 22 0 35 -10 15 -34 17 -215 20 -151 2 -208 -1 -217 -10z"/>
<path d="M832 828 c-16 -16 -15 -43 2 -57 9 -8 75 -11 216 -9 181 3 204 5 214
21 8 12 8 22 0 35 -10 15 -34 17 -215 20 -151 2 -208 -1 -217 -10z"/>
<path d="M475 700 c-15 -46 5 -51 194 -48 l176 3 0 30 0 30 -182 3 c-176 2
-182 2 -188 -18z"/>
<path d="M904 706 c-3 -8 -4 -23 -2 -33 3 -17 20 -18 243 -18 l240 0 0 30 0
30 -238 3 c-201 2 -238 0 -243 -12z"/>
<path d="M914 602 c-20 -13 -23 -41 -8 -57 14 -13 49 -15 241 -13 202 3 227 5
237 20 8 13 8 23 0 35 -10 16 -34 18 -235 20 -123 2 -229 0 -235 -5z"/>
<path d="M824 476 c-3 -8 -4 -23 -2 -33 3 -17 20 -18 214 -21 226 -3 244 1
229 48 -6 19 -13 20 -221 20 -178 0 -216 -2 -220 -14z"/>
<path d="M762 368 c-15 -15 -15 -41 0 -56 15 -15 320 -17 349 -2 21 12 25 40
7 58 -17 17 -339 17 -356 0z"/>
</g>
</svg>
